<svg width="21" height="20" viewBox="0 0 21 20" fill="none" xmlns="http://www.w3.org/2000/svg">
<path d="M10.2422 0.408447C8.92897 0.408447 7.62861 0.667105 6.41535 1.16965C5.2021 1.6722 4.09971 2.40879 3.17112 3.33738C1.29576 5.21274 0.242188 7.75628 0.242188 10.4084C0.242188 14.8284 3.11219 18.5784 7.08219 19.9084C7.58219 19.9884 7.74219 19.6784 7.74219 19.4084V17.7184C4.97219 18.3184 4.38219 16.3784 4.38219 16.3784C3.92219 15.2184 3.27219 14.9084 3.27219 14.9084C2.36219 14.2884 3.34219 14.3084 3.34219 14.3084C4.34219 14.3784 4.87219 15.3384 4.87219 15.3384C5.74219 16.8584 7.21219 16.4084 7.78219 16.1684C7.87219 15.5184 8.13219 15.0784 8.41219 14.8284C6.19219 14.5784 3.86219 13.7184 3.86219 9.90845C3.86219 8.79845 4.24219 7.90845 4.89219 7.19845C4.79219 6.94845 4.44219 5.90845 4.99219 4.55845C4.99219 4.55845 5.83219 4.28845 7.74219 5.57845C8.53219 5.35845 9.39219 5.24845 10.2422 5.24845C11.0922 5.24845 11.9522 5.35845 12.7422 5.57845C14.6522 4.28845 15.4922 4.55845 15.4922 4.55845C16.0422 5.90845 15.6922 6.94845 15.5922 7.19845C16.2422 7.90845 16.6222 8.79845 16.6222 9.90845C16.6222 13.7284 14.2822 14.5684 12.0522 14.8184C12.4122 15.1284 12.7422 15.7384 12.7422 16.6684V19.4084C12.7422 19.6784 12.9022 19.9984 13.4122 19.9084C17.3822 18.5684 20.2422 14.8284 20.2422 10.4084C20.2422 9.09523 19.9835 7.79487 19.481 6.58161C18.9784 5.36836 18.2418 4.26597 17.3133 3.33738C16.3847 2.40879 15.2823 1.6722 14.069 1.16965C12.8558 0.667105 11.5554 0.408447 10.2422 0.408447Z" fill="white"/>
</svg>
